<?xml version="1.0" encoding="utf-8"?>
<!-- Generator: Adobe Illustrator 23.0.3, SVG Export Plug-In . SVG Version: 6.00 Build 0)  -->
<svg version="1.1" id="Layer_1" xmlns="http://www.w3.org/2000/svg" xmlns:xlink="http://www.w3.org/1999/xlink" x="0px" y="0px"
	 viewBox="0 0 633 170" style="enable-background:new 0 0 633 170;" xml:space="preserve">
<style type="text/css">
	.st0{fill:#D44D5C;}
	.st1{font-family:'CopperplateGothic-Bold';}
	.st2{font-size:77.1644px;}
	.st3{fill:#773244;}
</style>
<g>
	<text transform="matrix(1 0 0 1 172.5469 113.7617)" class="st0 st1 st2">ELENC.O</text>
</g>
<g>
	<path class="st3" d="M41.6,31C79,49.7,116.4,68.5,154.5,87.6c-9,4.5-17.4,8.8-25.8,12.9c-4,2-8.4,5.8-12.1,5.2
		c-3.7-0.6-6.7-5.5-9.9-8.6c-20.7-20.5-41.3-41-62-61.5c-1.3-1.3-2.9-2.2-4.4-3.3C40.8,31.9,41.2,31.4,41.6,31z"/>
	<path class="st3" d="M43.9,142.7c17-17.2,34.6-35,52.1-52.6c5.7,5.8,11.5,11.6,17.6,17.8C90.3,119.5,66.7,131.3,43.9,142.7z"/>
</g>
</svg>
