<?xml version="1.0" encoding="utf-8"?>
<!-- Generator: Adobe Illustrator 23.0.3, SVG Export Plug-In . SVG Version: 6.00 Build 0)  -->
<svg version="1.1" id="Layer_1" xmlns="http://www.w3.org/2000/svg" xmlns:xlink="http://www.w3.org/1999/xlink" x="0px" y="0px"
	 viewBox="0 0 156 136" style="enable-background:new 0 0 156 136;" xml:space="preserve">
<style type="text/css">
	.st0{fill:#FFFFFF;}
</style>
<g>
	<path class="st0" d="M26.6,13.9C64,32.7,101.4,51.5,139.5,70.6c-9,4.5-17.4,8.8-25.8,12.9c-4,2-8.4,5.8-12.1,5.2
		c-3.7-0.6-6.7-5.5-9.9-8.6c-20.7-20.5-41.3-41-62-61.5c-1.3-1.3-2.9-2.2-4.4-3.3C25.8,14.9,26.2,14.4,26.6,13.9z"/>
	<path class="st0" d="M28.9,125.7c17-17.2,34.6-35,52.1-52.6c5.7,5.8,11.5,11.6,17.6,17.8C75.3,102.5,51.7,114.3,28.9,125.7z"/>
</g>
</svg>
