<?xml version="1.0" encoding="utf-8"?>
<!-- Generator: Adobe Illustrator 23.0.3, SVG Export Plug-In . SVG Version: 6.00 Build 0)  -->
<svg version="1.1" id="Layer_1" xmlns="http://www.w3.org/2000/svg" xmlns:xlink="http://www.w3.org/1999/xlink" x="0px" y="0px"
	 viewBox="0 0 633 170" style="enable-background:new 0 0 633 170;" xml:space="preserve">
<style type="text/css">
	.st0{fill:#D44D5C;}
	.st1{font-family:'CopperplateGothic-Bold';}
	.st2{font-size:77.1644px;}
	.st3{fill:#773244;}
</style>
<g>
	<text transform="matrix(1 0 0 1 172.5469 113.7617)" class="st0 st1 st2">ELENC.IO</text>
</g>
<g>
	<path class="st3" d="M41.6,30.95c37.38,18.76,74.76,37.52,112.91,56.66c-9.01,4.52-17.4,8.76-25.83,12.93
		c-4.01,1.98-8.38,5.75-12.05,5.18c-3.65-0.57-6.7-5.46-9.87-8.6C86.08,76.64,65.44,56.1,44.74,35.62c-1.29-1.28-2.92-2.2-4.4-3.29
		C40.77,31.87,41.18,31.41,41.6,30.95z"/>
	<path class="st3" d="M43.88,142.69C60.87,125.54,78.52,107.74,96,90.1c5.68,5.75,11.46,11.62,17.55,17.79
		C90.34,119.49,66.65,131.32,43.88,142.69z"/>
</g>
</svg>
