<?xml version="1.0" encoding="utf-8"?>
<!-- Generator: Adobe Illustrator 23.0.3, SVG Export Plug-In . SVG Version: 6.00 Build 0)  -->
<svg version="1.1" id="Layer_1" xmlns="http://www.w3.org/2000/svg" xmlns:xlink="http://www.w3.org/1999/xlink" x="0px" y="0px"
	 viewBox="0 0 156 136" style="enable-background:new 0 0 156 136;" xml:space="preserve">
<style type="text/css">
	.st0{fill:#773244;}
</style>
<g>
	<path class="st0" d="M26.6,13.95c37.38,18.76,74.76,37.52,112.91,56.66c-9.01,4.52-17.4,8.76-25.83,12.93
		c-4.01,1.98-8.38,5.75-12.05,5.18c-3.65-0.57-6.7-5.46-9.87-8.6C71.08,59.64,50.44,39.1,29.74,18.62c-1.29-1.28-2.92-2.2-4.4-3.29
		C25.77,14.87,26.18,14.41,26.6,13.95z"/>
	<path class="st0" d="M28.88,125.69C45.87,108.54,63.52,90.74,81,73.1c5.68,5.75,11.46,11.62,17.55,17.79
		C75.34,102.49,51.65,114.32,28.88,125.69z"/>
</g>
</svg>
