<?xml version="1.0" encoding="utf-8"?>
<!-- Generator: Adobe Illustrator 23.0.3, SVG Export Plug-In . SVG Version: 6.00 Build 0)  -->
<svg version="1.1" id="Layer_1" xmlns="http://www.w3.org/2000/svg" xmlns:xlink="http://www.w3.org/1999/xlink" x="0px" y="0px"
	 viewBox="0 0 633 170" style="enable-background:new 0 0 633 170;" xml:space="preserve">
<style type="text/css">
	.st0{fill:#FFFFFF;}
	.st1{enable-background:new    ;}
</style>
<g>
	<path class="st0" d="M41.6,31C79,49.7,116.4,68.5,154.5,87.6c-9,4.5-17.4,8.8-25.8,12.9c-4,2-8.4,5.8-12.1,5.2
		c-3.7-0.6-6.7-5.5-9.9-8.6c-20.7-20.5-41.3-41-62-61.5c-1.3-1.3-2.9-2.2-4.4-3.3C40.8,31.9,41.2,31.4,41.6,31z"/>
	<path class="st0" d="M43.9,142.7c17-17.2,34.6-35,52.1-52.6c5.7,5.8,11.5,11.6,17.6,17.8C90.3,119.5,66.7,131.3,43.9,142.7z"/>
	<g class="st1">
		<path class="st0" d="M190.8,91.2v14.1h33.1c0.8,0,1.3-0.2,1.7-0.5c0.4-0.4,0.7-1,1-1.9h1.2v13.3h-1.2c-0.3-0.9-0.6-1.5-1-1.9
			c-0.4-0.4-1-0.5-1.7-0.5h-46.7v-1.2c0.9-0.3,1.5-0.6,1.9-1c0.4-0.4,0.5-1,0.5-1.8V66.3c0-0.8-0.2-1.4-0.5-1.8
			c-0.4-0.4-1-0.7-1.9-1v-1.2H223c0.8,0,1.3-0.2,1.7-0.5c0.4-0.4,0.7-1,1-1.9h1.2v13.3h-1.2c-0.3-0.9-0.6-1.5-1-1.9
			c-0.4-0.4-1-0.5-1.7-0.5h-32.2V83h20.9c0.8,0,1.3-0.2,1.7-0.5s0.7-1,1-1.9h1.2v13h-1.2c-0.3-0.9-0.6-1.5-1-1.9s-1-0.5-1.7-0.5
			H190.8z"/>
		<path class="st0" d="M249.4,105.3h31.6c0.8,0,1.4-0.2,1.8-0.5s0.7-1,1-1.9h1.2v13.3h-1.2c-0.3-0.9-0.6-1.5-1-1.9s-1-0.5-1.8-0.5
			h-45.3v-1.2c0.9-0.3,1.5-0.6,1.9-1c0.4-0.4,0.5-1,0.5-1.8V66.3c0-0.8-0.2-1.4-0.5-1.8c-0.4-0.4-1-0.7-1.9-1v-1.2h16.1v1.2
			c-0.9,0.2-1.5,0.5-1.9,1c-0.4,0.4-0.5,1-0.5,1.8V105.3z"/>
		<path class="st0" d="M304,91.2v14.1h33.1c0.8,0,1.3-0.2,1.7-0.5c0.4-0.4,0.7-1,1-1.9h1.2v13.3h-1.2c-0.3-0.9-0.6-1.5-1-1.9
			c-0.4-0.4-1-0.5-1.7-0.5h-46.7v-1.2c0.9-0.3,1.5-0.6,1.9-1c0.4-0.4,0.5-1,0.5-1.8V66.3c0-0.8-0.2-1.4-0.5-1.8
			c-0.4-0.4-1-0.7-1.9-1v-1.2h45.8c0.8,0,1.3-0.2,1.7-0.5c0.4-0.4,0.7-1,1-1.9h1.2v13.3h-1.2c-0.3-0.9-0.6-1.5-1-1.9
			c-0.4-0.4-1-0.5-1.7-0.5H304V83h20.9c0.8,0,1.3-0.2,1.7-0.5s0.7-1,1-1.9h1.2v13h-1.2c-0.3-0.9-0.6-1.5-1-1.9s-1-0.5-1.7-0.5H304z"
			/>
		<path class="st0" d="M361.7,78.5v31.3c0,0.8,0.2,1.4,0.5,1.8c0.4,0.4,1,0.7,1.9,1v1.2H349v-1.2c0.9-0.3,1.5-0.6,1.9-1
			c0.4-0.4,0.5-1,0.5-1.8V66.3c0-0.8-0.2-1.3-0.5-1.7c-0.4-0.4-1-0.7-1.9-1v-1.2h17.5v1.2c-1.1,0.3-1.6,0.9-1.6,1.7
			c0,0.6,0.4,1.3,1.1,2l28.4,29.5V66.3c0-0.8-0.2-1.3-0.5-1.7c-0.4-0.4-1-0.7-1.9-1v-1.2H407v1.2c-0.9,0.3-1.5,0.6-1.9,1
			c-0.4,0.4-0.5,1-0.5,1.7v43.6c0,0.8,0.2,1.4,0.5,1.8c0.4,0.4,1,0.7,1.9,1v1.2h-16.2v-1.2c1.1-0.2,1.6-0.8,1.6-1.6
			c0-0.5-0.6-1.4-1.8-2.6L361.7,78.5z"/>
		<path class="st0" d="M465.8,96.1l7.2,10.7l-1,0.7c-0.7-0.7-1.3-1-1.7-1s-1.7,0.6-3.8,1.8c-4.3,2.5-8,4.2-10.9,5
			c-3,0.9-6.5,1.3-10.5,1.3c-8.1,0-14.8-1.9-20-5.8c-3.1-2.2-5.5-5-7.2-8.3c-2-3.8-3.1-8-3.1-12.5c0-6.2,1.8-11.6,5.5-16.2
			c5.5-6.9,13.8-10.4,24.8-10.4c4.1,0,7.6,0.4,10.5,1.3c2.9,0.9,6.6,2.5,10.9,5c2.1,1.2,3.4,1.8,3.8,1.8s1-0.3,1.7-1l1,0.7L465.8,80
			l-1-0.7c0-0.4,0.1-0.7,0.1-1c0-0.7-0.3-1.4-0.9-2c-0.6-0.6-1.7-1.4-3.4-2.3c-4.4-2.5-9.2-3.8-14.1-3.8c-5.9,0-10.6,1.5-14.1,4.4
			c-4.1,3.4-6.2,7.9-6.2,13.5c0,5.5,2.1,10,6.2,13.5c3.5,2.9,8.2,4.4,14.1,4.4c5,0,9.7-1.3,14.1-3.8c1.6-0.9,2.7-1.7,3.4-2.3
			s0.9-1.3,0.9-2.1c0-0.3,0-0.6-0.1-1L465.8,96.1z"/>
		<path class="st0" d="M487.9,102.3c1.7,0,3.2,0.6,4.4,1.8c1.2,1.2,1.8,2.7,1.8,4.4c0,1.7-0.6,3.1-1.8,4.3s-2.7,1.8-4.4,1.8
			c-1.7,0-3.2-0.6-4.4-1.8c-1.2-1.2-1.8-2.7-1.8-4.4c0-1.7,0.6-3.1,1.8-4.3C484.7,102.9,486.1,102.3,487.9,102.3z"/>
		<path class="st0" d="M532.6,61.4c9,0,16.1,2.4,21.3,7.3c5.6,5.1,8.3,11.6,8.3,19.7c0,4.9-1.3,9.5-4,13.8
			c-5.2,8.3-13.7,12.5-25.6,12.5c-8.9,0-16-2.4-21.2-7.3c-2.8-2.6-5-5.7-6.4-9.3c-1.3-3.2-1.9-6.5-1.9-10.1c0-5.1,1.3-9.9,4-14.1
			C512.1,65.7,520.7,61.6,532.6,61.4z M532.7,70.2c-4.9,0-9,1.5-12.3,4.4c-3.9,3.4-5.8,7.9-5.8,13.5s1.9,10.1,5.8,13.5
			c3.3,2.9,7.4,4.4,12.3,4.4s9.1-1.5,12.3-4.4c1.9-1.7,3.4-3.9,4.5-6.4c0.9-2.2,1.4-4.5,1.4-6.9c0-5.8-1.9-10.4-5.8-13.7
			C541.7,71.7,537.6,70.2,532.7,70.2z"/>
	</g>
</g>
</svg>
